#!OML:ASF H:\Male1\Project 1\Capture day 1\Session 1\Male1.ASF
:FULLY-SPECIFIED
:DEGREES
659
root -0.861623 15.2782 -0.63916 1464.85 277.031 -29.8346
lowerback 5.33545 0.603143 3.00965
upperback 4.49961 0.795471 0.789378
thorax 1.67557 0.414322 -0.90575
lowerneck -10.689 3.23101 6.00537
upperneck 16.0602 3.64312 -2.37059
head 6.82189 1.87318 -1.42559
rclavicle 7.29291e-015 4.57205e-015
rhumerus -36.0881 5.03476 -88.4353
rradius 35.2762
rwrist -20.897
rhand -19.2709 -2.41432
rfingers 7.12502
rthumb 7.04367 -32.2771
lclavicle 7.29291e-015 4.57205e-015
lhumerus -25.7695 -10.8141 91.5297
lradius 26.4304
lwrist -7.51342
lhand -19.2101 13.6453
lfingers 7.12502
lthumb 7.1023 43.5061
rfemur -6.89299 6.39089 30.6008
rtibia 27.7302
rfoot -21.5354 -20.7585
rtoes -9.15557
lfemur -9.30826 -3.07192 -16.4223
ltibia 70.155
lfoot -3.74777 9.43609
ltoes -16.2817
660
root -1.16268 15.3006 -0.637256 1457.27 276.724 -21.8251
lowerback 5.0477 0.718937 2.44963
upperback 4.47101 0.933298 0.318888
thorax 1.80763 0.481067 -1.0771
lowerneck -10.8927 3.16013 5.86572
upperneck 16.2095 3.49653 -2.02043
head 6.89089 1.82324 -1.30068
rclavicle 1.04362e-014 -9.74045e-015
rhumerus -35.7251 4.97822 -88.4827
rradius 35.7393
rwrist -21.0354
rhand -18.9962 -2.23771
rfingers 7.12502
rthumb 7.30885 -32.0915
lclavicle 1.04362e-014 -9.74045e-015
lhumerus -26.7058 -9.45833 90.5503
lradius 25.5915
lwrist -8.87275
lhand -18.6674 13.8247
lfingers 7.12502
lthumb 7.62619 43.6672
rfemur -5.75176 6.11412 29.7487
rtibia 27.2708
rfoot -21.966 -20.7948
rtoes -10.3574
lfemur -12.0834 -3.89095 -18.1213
ltibia 69.8217
lfoot -5.9872 11.0692
ltoes -17.0174
661
root -1.4651 15.2974 -0.650706 1461.45 276.428 -25.999
lowerback 5.07375 0.966762 2.94068
upperback 4.51782 1.27748 0.270071
thorax 1.86906 0.666814 -1.41289
lowerneck -11.0336 3.08878 5.72596
upperneck 16.3289 3.35452 -1.68332
head 6.94049 1.7749 -1.18041
rclavicle -2.55935e-015 -1.98785e-015
rhumerus -35.4378 5.21866 -88.7026
rradius 36.1905
rwrist -21.5703
rhand -19.0932 -1.86205
rfingers 7.12502
rthumb 7.2152 -31.719
lclavicle -2.55935e-015 -1.98785e-015
lhumerus -27.7187 -8.40017 89.602
lradius 24.8518
lwrist -9.70855
lhand -18.7383 13.8951
lfingers 7.12502
lthumb 7.55777 43.74
rfemur -4.23319 6.7907 30.6038
rtibia 26.8668
rfoot -22.88 -21.0706
rtoes -10.267
lfemur -14.3687 -4.03514 -17.9883
ltibia 68.9813
lfoot -8.5448 12.0598
ltoes -15.7954
662
root -1.76617 15.2821 -0.6621 1464.66 276.094 -29.1168
lowerback 4.97968 1.1573 3.19158
upperback 4.60016 1.53241 0.206325
thorax 2.02885 0.8041 -1.62327
lowerneck -10.9717 3.02566 5.71686
upperneck 16.1327 3.26681 -1.63136
head 6.86195 1.73632 -1.17156
rclavicle 4.68386e-014 2.78299e-015
rhumerus -35.1299 5.7175 -89.0073
rradius 36.7402
rwrist -22.1377
rhand -19.5069 -1.20113
rfingers 7.12502
rthumb 6.81582 -31.0714
lclavicle 4.68386e-014 2.78299e-015
lhumerus -28.6882 -7.20352 88.5809
lradius 24.2851
lwrist -10.1238
lhand -18.8657 13.8468
lfingers 7.12502
lthumb 7.43477 43.6962
rfemur -2.91194 7.40791 31.2712
rtibia 26.8298
rfoot -24.2891 -21.0557
rtoes -8.9969
lfemur -16.5698 -4.24514 -17.9948
ltibia 67.3671
lfoot -10.7027 12.7624
ltoes -13.4692
663
root -2.07308 15.2658 -0.674659 1468.77 275.734 -33.2101
lowerback 5.0526 1.32142 3.3552
upperback 4.60427 1.75755 0.19217
thorax 2.01087 0.920576 -1.73732
lowerneck -10.8614 3.02422 5.69805
upperneck 16.0271 3.2697 -1.59971
head 6.8079 1.73901 -1.15961
rclavicle 3.6154e-014 -2.5842e-015
rhumerus -34.9593 6.38709 -89.3668
rradius 37.2196
rwrist -22.4769
rhand -20.1731 -0.0390975
rfingers 7.12502
rthumb 6.17268 -29.9292
lclavicle 3.6154e-014 -2.5842e-015
lhumerus -29.9455 -5.82896 87.5029
lradius 24.0429
lwrist -10.4132
lhand -18.6619 13.9666
lfingers 7.12502
lthumb 7.63152 43.809
rfemur -1.26559 8.09184 32.0205
rtibia 26.2436
rfoot -25.2458 -21.4033
rtoes -8.3722
lfemur -18.5943 -4.42808 -17.8675
ltibia 65.2111
lfoot -12.4668 13.2295
ltoes -10.9734
664
root -2.3765 15.264 -0.651629 1455.64 275.525 -19.3337
lowerback 4.43762 1.25222 2.61548
upperback 4.47864 1.64549 -0.410374
thorax 2.21069 0.860865 -1.92701
lowerneck -10.9227 3.05827 5.7742
upperneck 16.0069 3.28766 -1.53414
head 6.81352 1.75761 -1.14837
rclavicle -2.47984e-014 8.34896e-015
rhumerus -34.6783 6.84768 -89.7373
rradius 37.561
rwrist -22.6754
rhand -20.6811 0.735659
rfingers 7.12502
rthumb 5.68228 -29.1682
lclavicle -2.47984e-014 8.34896e-015
lhumerus -31.2257 -4.92576 86.4694
lradius 24.0462
lwrist -10.3168
lhand -18.284 14.3918
lfingers 7.12502
lthumb 7.99623 44.2205
rfemur -0.208766 6.91007 30.5014
rtibia 25.4926
rfoot -25.6215 -20.8389
rtoes -9.17771
lfemur -20.8647 -5.68336 -19.7291
ltibia 62.1986
lfoot -13.6047 14.2319
ltoes -9.73298
665
root -2.68924 15.2521 -0.674354 1471.43 275.365 -35.299
lowerback 4.5217 1.47067 3.61957
upperback 4.62494 1.94981 -0.0603337
thorax 2.35926 1.03597 -2.13456
lowerneck -10.8872 3.0393 5.79293
upperneck 15.8559 3.26529 -1.54936
head 6.75842 1.74628 -1.15914
rclavicle 2.57178e-014 -5.36719e-015
rhumerus -34.212 7.29884 -90.0027
rradius 37.8788
rwrist -22.699
rhand -20.6779 0.871797
rfingers 7.12502
rthumb 5.6853 -29.0319
lclavicle 2.57178e-014 -5.36719e-015
lhumerus -32.3388 -3.87212 85.4448
lradius 24.0877
lwrist -10.1032
lhand -17.8538 14.9218
lfingers 7.12502
lthumb 8.41139 44.7343
rfemur 1.95137 8.18776 32.7161
rtibia 24.2188
rfoot -26.0482 -22.0852
rtoes -9.42247
lfemur -22.261 -5.35362 -18.0867
ltibia 58.9621
lfoot -14.5748 14.1575
ltoes -8.56459
